<?xml version="1.0" encoding="utf-8"?>
<!-- Generator: Adobe Illustrator 25.2.3, SVG Export Plug-In . SVG Version: 6.00 Build 0)  -->
<svg version="1.1" id="Layer_1" xmlns="http://www.w3.org/2000/svg" xmlns:xlink="http://www.w3.org/1999/xlink" x="0px" y="0px"
	 viewBox="0 0 1150 460" style="enable-background:new 0 0 1150 460;" xml:space="preserve">
<style type="text/css">
	.st0{fill:#A0D0D8;}
	.st1{clip-path:url(#SVGID_2_);}
	.st2{fill:#E5E5E5;}
	.st3{opacity:0.46;fill:#FFFFFF;enable-background:new    ;}
	.st4{opacity:0.5;}
	.st5{fill:#FFFFFF;}
	.st6{fill:#E1E8EA;}
	.st7{fill:#6D808A;}
	.st8{fill:#DEEDF9;}
	.st9{fill:#C9E9F4;}
	.st10{opacity:0.4;fill:#C4E8F0;enable-background:new    ;}
	.st11{opacity:0.38;fill:#7A7A78;enable-background:new    ;}
	.st12{fill:#405B7D;}
	.st13{fill:#7E7B78;}
	.st14{fill:#D07628;}
	.st15{opacity:0.38;fill:#373636;enable-background:new    ;}
	.st16{fill:#FAF2EF;}
	.st17{opacity:0.38;fill:#524E3F;enable-background:new    ;}
	.st18{fill:#A25625;}
	.st19{opacity:0.37;fill:#0D2233;enable-background:new    ;}
	.st20{fill:#F2F2F2;}
	.st21{fill:#B3B4B4;}
	.st22{fill:#CAD2D2;}
	.st23{fill:#2483C6;}
	.st24{fill:#707173;}
	.st25{fill:none;stroke:#959595;stroke-width:8.000000e-02;stroke-miterlimit:10;}
	.st26{fill:#85BD41;}
	.st27{font-family:'Roboto-Regular';}
	.st28{font-size:2.15px;}
	.st29{fill:#E3E3E3;}
	.st30{fill:#B3B3B3;}
	.st31{fill:#FFFFFF;stroke:#959595;stroke-width:8.000000e-02;stroke-miterlimit:10;}
	.st32{fill:#676868;}
	.st33{fill:#E3E3E3;stroke:#959595;stroke-width:3.000000e-02;stroke-miterlimit:10;}
	.st34{fill:#E3E3E3;stroke:#FFFFFF;stroke-width:2.000000e-02;stroke-miterlimit:10;}
	.st35{fill:none;}
	.st36{fill:#00AAE0;}
	.st37{opacity:0.3;fill:#00AAE0;enable-background:new    ;}
	.st38{fill:none;stroke:#FFFFFF;stroke-width:0.21;stroke-miterlimit:10;}
	.st39{fill:#F9F9FA;}
	.st40{fill:#DBEDF1;}
	.st41{fill:none;stroke:#888B8D;stroke-width:0.69;stroke-miterlimit:10;}
	.st42{fill:#9C9C9D;}
	.st43{fill:#EBEBEC;}
	.st44{fill:#86898B;}
	.st45{fill:#CFD0CE;}
	.st46{fill:#54585B;}
	.st47{fill:#D52329;}
	.st48{fill:#0E8443;}
	.st49{fill:#C0C3D1;}
	.st50{fill:#EBEBEB;}
	.st51{fill:#E0E1E0;}
	.st52{fill:#8B8A8A;}
	.st53{fill:#CFCECC;}
	.st54{fill:#C7C5C3;}
	.st55{fill:#353435;}
	.st56{fill:#48484A;}
	.st57{fill:#F6F7F8;}
	.st58{fill:#B2B4B3;}
	.st59{fill:#B0B8C4;}
	.st60{fill:none;stroke:#DBEDF1;stroke-width:1.01;stroke-miterlimit:10;}
	.st61{opacity:0.4;fill:none;stroke:#94795D;stroke-width:1.01;stroke-miterlimit:10;enable-background:new    ;}
	.st62{fill:#6A6A69;}
	.st63{fill:#AEAEAE;}
	.st64{fill:#676767;}
	.st65{fill:#838384;}
	.st66{fill:#9199B0;}
	.st67{fill:#F3F3F3;}
	.st68{fill:#AAACAD;stroke:#BBBDBF;stroke-width:0.5;stroke-linecap:round;stroke-linejoin:round;}
	.st69{fill:#787D83;}
	.st70{fill:#AAACAD;}
	.st71{fill:#D0D2D3;}
	.st72{fill:#BBBDBF;}
	.st73{fill:#343841;}
	.st74{fill:#A7A9AC;}
	.st75{fill:#929497;}
	.st76{fill:none;stroke:#DBEDF1;stroke-miterlimit:10;}
	.st77{opacity:0.4;fill:none;stroke:#94795D;stroke-miterlimit:10;enable-background:new    ;}
	.st78{fill:#888B8D;}
	.st79{fill:#53565A;}
	.st80{fill:#E8E8E8;}
	.st81{fill:#C4C4C4;}
	.st82{fill:#D0D0CE;}
	.st83{fill:none;stroke:#D0D0CE;stroke-miterlimit:10;}
	.st84{fill:#B1B3B3;}
	.st85{fill:url(#SVGID_3_);}
</style>
<rect class="st0" width="1150" height="412.6"/>
<g>
	<defs>
		<rect id="SVGID_1_" y="339.8" width="1150" height="214.8"/>
	</defs>
	<clipPath id="SVGID_2_">
		<use xlink:href="#SVGID_1_"  style="overflow:visible;"/>
	</clipPath>
	<g class="st1">
		<polygon class="st2" points="1150,554.5 0,554.5 0,339.8 1150,339.8 		"/>
		<polygon class="st3" points="98.6,554.5 96.7,554.5 347.3,339.8 348.2,339.8 		"/>
		<polygon class="st3" points="340.5,554.5 338.6,554.5 462.5,339.8 463.4,339.8 		"/>
		<polygon class="st3" points="582.5,554.5 580.5,554.5 577.6,339.8 578.5,339.8 		"/>
		<polygon class="st3" points="824.4,554.5 822.5,554.5 692.8,339.8 693.7,339.8 		"/>
		<polygon class="st3" points="1066.3,554.5 1064.4,554.5 808,339.8 808.9,339.8 		"/>
		<polygon class="st3" points="1150,466 924.1,339.8 923.2,339.8 1150,466.9 		"/>
		<polygon class="st3" points="1150,386.3 1039.2,339.8 1038.3,339.8 1150,386.8 		"/>
		<rect x="0" y="348.2" class="st3" width="1150" height="0.2"/>
		<rect x="0" y="416.6" class="st3" width="1150" height="0.3"/>
		<polygon class="st3" points="0,472.7 233,339.8 232.1,339.8 0,471.9 		"/>
		<rect x="0" y="458.8" class="st3" width="1150" height="0.4"/>
		<polygon class="st3" points="0,416.6 167.1,335 166.2,335 0,416 		"/>
		<polygon class="st3" points="0,390.1 117.8,339.8 116.9,339.8 0,389.6 		"/>
		<rect x="0" y="384.4" class="st3" width="1150" height="0.2"/>
		<rect x="0" y="359" class="st3" width="1150" height="0.2"/>
		<polygon class="st3" points="0,362.6 60.3,339.8 59.4,339.8 0,362.2 		"/>
	</g>
</g>
<g class="st4">
	<rect x="254.5" y="72.7" class="st5" width="63.2" height="124.4"/>
	<rect x="190.4" y="72.7" class="st5" width="63.2" height="124.4"/>
	<rect x="253.5" y="72.7" class="st6" width="1" height="124.4"/>
	<path class="st5" d="M318.4,72.7v124.4h92.3V72.7H318.4z M405.8,192h-82.4V77.9h82.4L405.8,192z"/>
	<rect x="323.4" y="153.5" class="st5" width="82.4" height="5.1"/>
	<rect x="323.4" y="111.2" class="st5" width="82.4" height="5.1"/>
	<rect x="325.2" y="119.1" class="st7" width="6.8" height="34.2"/>
	<rect x="326.9" y="121.7" class="st8" width="3.5" height="13.9"/>
	<rect x="333.2" y="119.1" class="st7" width="6.8" height="34.2"/>
	<rect x="334.8" y="121.7" class="st8" width="3.5" height="13.9"/>
	<rect x="341.3" y="119.1" class="st7" width="6.8" height="34.2"/>
	<rect x="342.9" y="121.7" class="st8" width="3.5" height="13.9"/>
	<rect x="349.3" y="119.1" class="st7" width="6.8" height="34.2"/>
	<rect x="350.9" y="121.7" class="st8" width="3.5" height="13.9"/>
	<rect x="381.1" y="160.9" class="st7" width="6.8" height="31.1"/>
	<rect x="382.7" y="163.3" class="st8" width="3.5" height="12.6"/>
	<rect x="389.1" y="160.9" class="st7" width="6.8" height="31.1"/>
	<rect x="390.7" y="163.3" class="st8" width="3.5" height="12.6"/>
	<rect x="397.2" y="160.9" class="st7" width="6.8" height="31.1"/>
	<rect x="398.8" y="163.3" class="st8" width="3.5" height="12.6"/>
	<circle class="st9" cx="221.4" cy="164.9" r="5"/>
	<circle class="st9" cx="285.6" cy="164.9" r="5"/>
	<rect x="373.5" y="77.9" class="st10" width="19" height="114.1"/>
	<rect x="364.7" y="77.9" class="st10" width="2.9" height="114.1"/>
	<path class="st5" d="M97,72.7v124.4h92.3V72.7H97z M184.4,192H102V77.9h82.4L184.4,192z"/>
	<rect x="102" y="153.5" class="st5" width="82.4" height="5.1"/>
	<rect x="102" y="111.2" class="st5" width="82.4" height="5.1"/>
	<rect x="111.8" y="119.1" class="st7" width="6.8" height="34.2"/>
	<rect x="113.4" y="121.7" class="st8" width="3.6" height="13.9"/>
	<rect x="119.9" y="119.1" class="st7" width="6.8" height="34.2"/>
	<rect x="121.5" y="121.7" class="st8" width="3.6" height="13.9"/>
	<path class="st11" d="M354,102.6h45.2c0.6,0,1.1,0.5,1.1,1.1v6c0,0.6-0.5,1.1-1.1,1.1H354c-0.6,0-1.1-0.5-1.1-1.1v-6
		C352.9,103.1,353.4,102.6,354,102.6z"/>
	<rect x="373" y="102.6" class="st12" width="7.3" height="8.2"/>
	<rect x="357.1" y="102.6" class="st12" width="1.9" height="8.2"/>
	<rect x="393.8" y="102.6" class="st12" width="1.9" height="8.2"/>
	<path class="st13" d="M361,96.8h36.5c0.3,0,0.6,0.3,0.6,0.6v4.7c0,0.3-0.3,0.6-0.6,0.6H361c-0.3,0-0.6-0.3-0.6-0.6v-4.7
		C360.4,97,360.7,96.8,361,96.8z"/>
	<rect x="367.3" y="96.8" class="st14" width="12.3" height="5.8"/>
	<rect x="383" y="98.2" class="st14" width="7.6" height="2.9"/>
	<path class="st15" d="M359.9,90.9H398l0,0v5.8l0,0h-37.8c-1.6,0-2.8-1.3-2.8-2.8v-0.5C357.4,92,358.5,90.9,359.9,90.9L359.9,90.9z"
		/>
	<rect x="360.3" y="91.8" class="st16" width="37.8" height="4.1"/>
	<path class="st17" d="M358.9,83.2h32.8l0,0v7.6l0,0h-32.8c-2,0-3.7-1.6-3.7-3.7v0v-0.2C355.2,84.9,356.9,83.2,358.9,83.2z"/>
	<rect x="358.7" y="84.4" class="st16" width="33" height="5.3"/>
	<path class="st14" d="M328.3,182.9h45.2c0.6,0,1.1,0.5,1.1,1.1v6c0,0.6-0.5,1.1-1.1,1.1h-45.2c-0.6,0-1.1-0.5-1.1-1.1v-6
		C327.2,183.4,327.7,182.9,328.3,182.9z"/>
	<rect x="347.3" y="182.9" class="st18" width="7.3" height="8.2"/>
	<rect x="331.4" y="182.9" class="st18" width="1.9" height="8.2"/>
	<rect x="368.1" y="182.9" class="st18" width="1.9" height="8.2"/>
	<path class="st17" d="M332.6,177.1h36.5c0.3,0,0.6,0.3,0.6,0.6v4.7c0,0.3-0.3,0.6-0.6,0.6h-36.5c-0.3,0-0.6-0.3-0.6-0.6v-4.7
		C332.1,177.4,332.3,177.1,332.6,177.1z"/>
	<rect x="339" y="177.1" class="st19" width="12.3" height="5.8"/>
	<rect x="354.6" y="178.6" class="st19" width="7.6" height="2.9"/>
	<rect x="127.9" y="119.1" class="st7" width="6.8" height="34.2"/>
	<rect x="129.5" y="121.7" class="st8" width="3.6" height="13.9"/>
	<rect x="152.1" y="77.9" class="st10" width="19" height="114.1"/>
	<rect x="102" y="77.9" class="st10" width="82.4" height="114.1"/>
	<rect x="143.3" y="77.9" class="st10" width="2.9" height="114.1"/>
	<rect x="323.5" y="77.9" class="st10" width="82.4" height="114.1"/>
</g>
<rect x="918.3" y="158.6" class="st5" width="121.6" height="6.4"/>
<g class="st4">
	<path class="st17" d="M985.8,144.1h36.5c0.3,0,0.6,0.3,0.6,0.6v4.7c0,0.3-0.3,0.6-0.6,0.6h-36.5c-0.3,0-0.6-0.3-0.6-0.6v-4.7
		C985.2,144.3,985.5,144.1,985.8,144.1z"/>
	<rect x="992.1" y="144.1" class="st19" width="12.3" height="5.8"/>
	<rect x="1007.8" y="145.6" class="st19" width="7.6" height="2.9"/>
</g>
<rect x="918.3" y="116.5" class="st5" width="121.6" height="6.4"/>
<rect x="936" y="78.7" class="st7" width="8.2" height="37.8"/>
<rect x="938" y="81.6" class="st8" width="4.3" height="15.3"/>
<rect x="945.7" y="78.7" class="st7" width="8.2" height="37.8"/>
<rect x="947.7" y="81.6" class="st8" width="4.3" height="15.3"/>
<rect x="955.6" y="78.7" class="st7" width="8.2" height="37.8"/>
<rect x="957.5" y="81.6" class="st8" width="4.3" height="15.3"/>
<rect x="27.3" y="281.2" class="st20" width="1063.3" height="16.3"/>
<polygon class="st5" points="1074.2,297.3 1074.2,474.7 820.4,474.7 820.4,341.3 651.3,341.3 651.3,474.7 400.9,474.7 400.8,341.3 
	235.6,341.3 235.7,474.7 27.3,474.7 27.3,296.7 "/>
<polygon class="st21" points="27.3,274.2 1076.5,274.2 1090.6,281.2 27.3,281.2 "/>
<path class="st22" d="M715.7,263.9h27.7c0,0-0.4,9.7,1.5,10.8s5.9,1.6,5.9,1.6H709c0,0,4.1,0,5.6-2.2S715.8,263.9,715.7,263.9"/>
<path class="st5" d="M670.6,176.7h118.1c1.7,0,3.1,1.4,3.1,3.1v71.8l0,0H667.5l0,0v-71.8C667.5,178.1,668.9,176.7,670.6,176.7z"/>
<rect x="672.7" y="181.1" class="st23" width="113.9" height="66.1"/>
<path class="st5" d="M667.5,251.6h124.3l0,0v7.9c0,2.4-2,4.4-4.4,4.4l0,0H671.8c-2.4,0-4.4-2-4.4-4.4v0V251.6L667.5,251.6z"/>
<rect x="709" y="276.2" class="st5" width="41.8" height="2"/>
<rect x="673.3" y="181.7" class="st5" width="112.5" height="65.1"/>
<rect x="673.3" y="185.3" class="st24" width="112.5" height="2"/>
<line class="st25" x1="690.6" y1="181.8" x2="690.6" y2="185.1"/>
<text transform="matrix(0.71 0 0 1 691.1797 184.21)" class="st26 st27 st28">Alissa Interp</text>
<text transform="matrix(0.71 0 0 1 699.6357 184.21)" class="st26 st27 st28">r</text>
<text transform="matrix(0.71 0 0 1 700.1406 184.21)" class="st26 st27 st28">et</text>
<rect x="673.9" y="186" class="st29" width="1.3" height="0.8"/>
<rect x="676" y="186" class="st29" width="2.6" height="0.8"/>
<rect x="679.4" y="186" class="st29" width="2.6" height="0.8"/>
<rect x="682.5" y="186" class="st29" width="3.5" height="0.8"/>
<rect x="673.9" y="188.1" class="st30" width="3.5" height="0.8"/>
<rect x="673.9" y="189.9" class="st31" width="3.6" height="2"/>
<rect x="677.5" y="189.9" class="st31" width="3.6" height="2"/>
<rect x="681" y="189.9" class="st31" width="3.6" height="2"/>
<rect x="684.6" y="189.9" class="st31" width="3.6" height="2"/>
<rect x="688.2" y="189.9" class="st31" width="3.6" height="2"/>
<rect x="678.3" y="188.1" class="st32" width="8.9" height="0.8"/>
<rect x="686.5" y="186" class="st29" width="3.5" height="0.8"/>
<rect x="690.7" y="186" class="st29" width="5.4" height="0.8"/>
<rect x="696.6" y="186" class="st29" width="2.6" height="0.8"/>
<rect x="674" y="193" class="st31" width="110.6" height="27.5"/>
<rect x="674" y="221.1" class="st31" width="110.6" height="24.8"/>
<rect x="674" y="193" class="st33" width="17.6" height="27.5"/>
<rect x="674" y="221.1" class="st34" width="110.6" height="1.6"/>
<rect x="674" y="193" class="st34" width="110.6" height="1.6"/>
<rect x="674" y="221.1" class="st34" width="110.6" height="1.6"/>
<rect x="676.2" y="225.5" class="st31" width="17.5" height="4.4"/>
<rect x="693.9" y="225.5" class="st31" width="17.5" height="4.4"/>
<rect x="711.7" y="225.5" class="st31" width="17.5" height="4.4"/>
<rect x="729.4" y="225.5" class="st31" width="17.5" height="4.4"/>
<rect x="747.1" y="225.5" class="st31" width="17.5" height="4.4"/>
<rect x="764.8" y="225.5" class="st31" width="17.5" height="4.4"/>
<rect x="676.2" y="230.1" class="st31" width="17.5" height="4.4"/>
<rect x="693.9" y="230.1" class="st31" width="17.5" height="4.4"/>
<rect x="711.7" y="230.1" class="st31" width="17.5" height="4.4"/>
<rect x="729.4" y="230.1" class="st31" width="17.5" height="4.4"/>
<rect x="747.1" y="230.1" class="st31" width="17.5" height="4.4"/>
<rect x="764.8" y="230.1" class="st31" width="17.5" height="4.4"/>
<rect x="676.2" y="234.7" class="st31" width="17.5" height="4.4"/>
<rect x="693.9" y="234.7" class="st31" width="17.5" height="4.4"/>
<rect x="711.7" y="234.7" class="st31" width="17.5" height="4.4"/>
<rect x="729.4" y="234.7" class="st31" width="17.5" height="4.4"/>
<rect x="747.1" y="234.7" class="st31" width="17.5" height="4.4"/>
<rect x="764.8" y="234.7" class="st31" width="17.5" height="4.4"/>
<rect x="676.2" y="239.4" class="st31" width="17.5" height="4.4"/>
<rect x="693.9" y="239.4" class="st31" width="17.5" height="4.4"/>
<rect x="711.7" y="239.4" class="st31" width="17.5" height="4.4"/>
<rect x="729.4" y="239.4" class="st31" width="17.5" height="4.4"/>
<rect x="747.1" y="239.4" class="st31" width="17.5" height="4.4"/>
<rect x="764.8" y="239.4" class="st31" width="17.5" height="4.4"/>
<path class="st5" d="M728.8,213.1h-1.7l0.8-3.7l0,0L728.8,213.1z M726.3,216.3l0.5-1.9h2.4l0.5,1.9h1.9l-2.3-8.5h-2.3l-2.3,8.5
	H726.3z"/>
<path class="st5" d="M733.7,213.5c0-1.8,0.1-2.2,0.7-2.2s0.7,0.7,0.7,2s-0.1,1.9-0.7,1.9C733.6,215.2,733.7,214.1,733.7,213.5z
	 M735.2,210.4v0.7l0,0c-0.2-0.5-0.8-0.8-1.3-0.8c-1.7,0-1.8,1.6-1.8,3s-0.1,3,1.7,3c0.5,0,1-0.2,1.2-0.7l0,0v1.1c0,0.6-0.2,1-0.6,1
	c-0.2,0-0.4-0.1-0.5-0.2c-0.1-0.2-0.2-0.4-0.1-0.6h-1.6c0,1.4,1.1,1.8,2.3,1.8c2.3,0,2.2-1.6,2.2-2v-6.2L735.2,210.4z"/>
<path class="st5" d="M739.9,216.3h-1.7v-5.9h1.7V216.3z M739.9,207.8v1.3h-1.7v-1.3H739.9z"/>
<path class="st5" d="M743.2,207.8v8.5h-1.7v-8.5H743.2z"/>
<path class="st5" d="M746.1,212.7c0-0.5,0-1.4,0.8-1.4s0.8,0.8,0.8,1.4H746.1z M749.3,213.6c0-1.9-0.2-3.3-2.4-3.3s-2.4,1.4-2.4,3
	c0,1.9,0.3,3.2,2.4,3.2c0.6,0,1.3-0.2,1.8-0.6c0.4-0.4,0.6-1,0.6-1.5h-1.7c0,0.5-0.1,1.1-0.7,1.1c-0.7,0-0.8-1.1-0.8-1.8
	L749.3,213.6z"/>
<path class="st5" d="M752.1,211L752.1,211c0.1-0.2,0.3-0.4,0.6-0.6c0.3-0.1,0.5-0.2,0.8-0.2c0.7-0.1,1.4,0.5,1.5,1.2
	c0,0,0,0.1,0,0.1v4.8h-1.7v-4.1c0-0.5-0.1-0.9-0.6-0.9s-0.6,0.4-0.6,0.9v4.1h-1.7v-5.9h1.7L752.1,211z"/>
<path class="st5" d="M755.9,210.4h0.7v-0.9l1.7-0.7v1.7h0.9v1h-0.9v3.2c0,0.4,0,0.7,0.5,0.7c0.1,0,0.2,0,0.3,0v1
	c-0.3,0-0.6,0.1-0.8,0.1c-1.4,0-1.6-1-1.6-1.3v-3.6h-0.7L755.9,210.4z"/>
<path class="st5" d="M708.5,209.6c-0.7,0-1.2-0.5-1.2-1.2s0.5-1.2,1.2-1.2c0.7,0,1.2,0.5,1.2,1.2S709.2,209.6,708.5,209.6
	L708.5,209.6z M709.4,205.1c0-0.5-0.4-0.9-0.9-0.9s-0.9,0.4-0.9,0.9s0.4,0.9,0.9,0.9l0,0C709,206,709.4,205.6,709.4,205.1z
	 M709.1,202.5c0-0.3-0.3-0.6-0.6-0.6c-0.3,0-0.6,0.3-0.6,0.6c0,0,0,0,0,0c0,0.3,0.3,0.6,0.6,0.6C708.8,203,709.1,202.8,709.1,202.5
	C709.1,202.5,709.1,202.5,709.1,202.5z M708.9,200.1c0-0.2-0.2-0.4-0.4-0.4l0,0c-0.2,0-0.4,0.1-0.5,0.3c0,0.2,0.1,0.4,0.3,0.5
	c0,0,0.1,0,0.1,0C708.7,200.5,708.9,200.3,708.9,200.1C708.9,200.1,708.9,200.1,708.9,200.1L708.9,200.1z M713.8,212.5
	c0-0.7-0.5-1.2-1.2-1.2s-1.2,0.5-1.2,1.2c0,0.7,0.5,1.2,1.2,1.2C713.3,213.7,713.8,213.1,713.8,212.5L713.8,212.5z M716.7,212.5
	c0-0.5-0.4-0.9-0.8-0.9c-0.5,0-0.9,0.4-0.9,0.8c0,0.5,0.4,0.9,0.8,0.9c0,0,0,0,0,0C716.3,213.3,716.7,212.9,716.7,212.5L716.7,212.5
	z M719.1,212.5c0-0.3-0.3-0.6-0.6-0.6c-0.3,0-0.6,0.3-0.6,0.6c0,0.3,0.3,0.6,0.6,0.6c0,0,0,0,0,0
	C718.8,213.1,719.1,212.8,719.1,212.5L719.1,212.5z M721.3,212.5c0-0.2-0.2-0.4-0.4-0.4c-0.2,0-0.4,0.2-0.4,0.4
	c0,0.2,0.2,0.4,0.4,0.4c0,0,0,0,0,0C721.1,212.9,721.3,212.7,721.3,212.5L721.3,212.5z M709.7,216.6c0-0.7-0.6-1.2-1.2-1.2
	c-0.7,0-1.2,0.6-1.2,1.2c0,0.7,0.5,1.2,1.2,1.2C709.2,217.8,709.7,217.2,709.7,216.6C709.7,216.6,709.7,216.6,709.7,216.6
	L709.7,216.6z M709.4,219.8c0-0.5-0.4-0.9-0.9-0.9s-0.9,0.4-0.9,0.9s0.4,0.9,0.9,0.9l0,0C709,220.7,709.4,220.3,709.4,219.8
	L709.4,219.8z M709.1,222.5c0-0.3-0.3-0.6-0.6-0.6c-0.3,0-0.6,0.3-0.6,0.6c0,0.3,0.3,0.6,0.6,0.6
	C708.8,223.1,709.1,222.8,709.1,222.5C709.1,222.5,709.1,222.5,709.1,222.5L709.1,222.5z M708.9,224.8c0-0.2-0.2-0.4-0.4-0.4
	c0,0,0,0,0,0c-0.2,0-0.4,0.2-0.4,0.4c0,0.2,0.2,0.4,0.4,0.4C708.7,225.2,708.9,225,708.9,224.8C708.9,224.8,708.9,224.8,708.9,224.8
	L708.9,224.8z M705.6,212.5c0-0.7-0.5-1.2-1.2-1.2s-1.2,0.5-1.2,1.2c0,0.7,0.5,1.2,1.2,1.2C705.1,213.7,705.6,213.1,705.6,212.5
	L705.6,212.5z M702,212.5c0-0.5-0.4-0.9-0.8-0.9c-0.5,0-0.9,0.4-0.9,0.8c0,0.5,0.4,0.9,0.8,0.9c0,0,0,0,0,0
	C701.6,213.3,702,212.9,702,212.5C702,212.5,702,212.5,702,212.5L702,212.5z M699.1,212.5c0-0.3-0.3-0.6-0.6-0.6
	c-0.3,0-0.6,0.3-0.6,0.6c0,0.3,0.3,0.6,0.6,0.6c0,0,0,0,0,0C698.8,213.1,699.1,212.8,699.1,212.5L699.1,212.5z M696.5,212.5
	c0-0.2-0.2-0.4-0.4-0.4l0,0c-0.2,0-0.4,0.2-0.3,0.5c0,0.2,0.2,0.3,0.3,0.3C696.4,212.9,696.5,212.7,696.5,212.5L696.5,212.5z
	 M712.2,210.5c0.2-0.2,0.4-0.5,0.4-0.9c0-0.3-0.1-0.6-0.4-0.9c-0.5-0.5-1.2-0.5-1.7,0c-0.2,0.2-0.4,0.5-0.4,0.9
	c0,0.3,0.1,0.6,0.4,0.9C711,210.9,711.8,210.9,712.2,210.5z M714.3,207.9c0.3-0.3,0.3-0.9,0-1.2c-0.2-0.2-0.4-0.3-0.6-0.2
	c-0.2,0-0.4,0.1-0.6,0.2c-0.2,0.2-0.3,0.4-0.3,0.6c0,0.5,0.4,0.9,0.9,0.9C713.9,208.2,714.2,208,714.3,207.9L714.3,207.9z
	 M716,205.8c0.1-0.1,0.2-0.3,0.2-0.4c0-0.1-0.1-0.3-0.2-0.4c-0.2-0.2-0.6-0.2-0.8,0c-0.1,0.1-0.2,0.3-0.2,0.4c0,0.2,0.1,0.3,0.2,0.4
	C715.4,206.1,715.7,206.1,716,205.8C716,205.9,716,205.8,716,205.8L716,205.8z M717.5,204c0.2-0.1,0.2-0.4,0-0.6c0,0,0,0,0,0
	c-0.2-0.1-0.4-0.1-0.6,0.1c-0.1,0.1-0.1,0.3,0,0.5c0.1,0.1,0.2,0.1,0.3,0.1C717.3,204.1,717.4,204.1,717.5,204L717.5,204z
	 M712.3,216.2c0.5-0.5,0.5-1.2,0-1.7c-0.2-0.2-0.5-0.4-0.9-0.4c-0.3,0-0.6,0.1-0.9,0.4c-0.5,0.5-0.5,1.2,0,1.7
	c0.2,0.2,0.5,0.4,0.9,0.4C711.7,216.6,712,216.5,712.3,216.2L712.3,216.2z M714.3,218.3c0.3-0.3,0.3-0.9,0-1.2
	c-0.2-0.2-0.4-0.2-0.6-0.2c-0.5,0-0.9,0.4-0.9,0.8c0,0,0,0,0,0c0,0.5,0.4,0.9,0.9,0.9C713.9,218.5,714.2,218.4,714.3,218.3
	L714.3,218.3z M716,220c0.1-0.1,0.2-0.3,0.2-0.4c0-0.2-0.1-0.3-0.2-0.4c-0.2-0.2-0.6-0.2-0.8,0c-0.2,0.2-0.2,0.6,0,0.8
	c0.1,0.1,0.3,0.2,0.4,0.2C715.7,220.2,715.9,220.1,716,220z M717.5,221.5c0.1-0.1,0.1-0.2,0.1-0.3c0-0.1,0-0.2-0.1-0.3
	c-0.2-0.2-0.4-0.2-0.6,0c-0.1,0.1-0.1,0.2-0.1,0.3c0,0.1,0,0.2,0.1,0.3c0.1,0.1,0.2,0.1,0.3,0.1
	C717.3,221.6,717.4,221.6,717.5,221.5L717.5,221.5z M706.4,216.2c0.5-0.5,0.5-1.2,0-1.7c0,0,0,0,0,0c-0.2-0.2-0.5-0.4-0.8-0.4
	c-0.3,0-0.6,0.1-0.9,0.4c-0.2,0.2-0.4,0.5-0.3,0.9c0,0.3,0.1,0.6,0.3,0.9c0.2,0.2,0.5,0.3,0.9,0.4
	C705.9,216.6,706.2,216.5,706.4,216.2L706.4,216.2z M703.9,218.3c0.3-0.3,0.3-0.9,0-1.2c0,0,0,0,0,0c-0.2-0.2-0.4-0.2-0.6-0.2
	c-0.5-0.1-0.9,0.3-0.9,0.8c-0.1,0.5,0.3,0.9,0.8,0.9c0.1,0,0.1,0,0.2,0C703.5,218.6,703.7,218.5,703.9,218.3L703.9,218.3z
	 M701.8,220c0.1-0.1,0.2-0.3,0.2-0.4c0-0.2-0.1-0.3-0.2-0.4c-0.2-0.2-0.6-0.2-0.8,0c-0.1,0.1-0.2,0.3-0.2,0.4c0,0.2,0.1,0.3,0.2,0.4
	C701.2,220.2,701.6,220.2,701.8,220C701.8,220,701.8,220,701.8,220z M700,221.5c0.1-0.1,0.1-0.2,0.1-0.3c0-0.1-0.1-0.2-0.1-0.3
	c-0.2-0.1-0.4-0.1-0.6,0.1c-0.1,0.1-0.1,0.3,0,0.5C699.6,221.6,699.8,221.6,700,221.5C700,221.5,700,221.5,700,221.5z M706.4,210.5
	c0.5-0.5,0.5-1.2,0-1.7c-0.5-0.5-1.2-0.5-1.7,0c-0.5,0.5-0.5,1.2,0,1.7c0.2,0.2,0.5,0.3,0.8,0.3
	C705.9,210.8,706.2,210.7,706.4,210.5L706.4,210.5z M703.9,207.9c0.3-0.4,0.2-0.9-0.1-1.2c-0.3-0.3-0.8-0.3-1.1,0
	c-0.3,0.3-0.3,0.9,0,1.2C703,208.3,703.5,208.3,703.9,207.9z M701.8,205.9c0.2-0.2,0.2-0.6,0-0.8c-0.2-0.2-0.6-0.2-0.8,0
	c0,0,0,0,0,0c-0.2,0.2-0.2,0.6,0,0.8C701.2,206.1,701.6,206.1,701.8,205.9z M700,204c0.1-0.1,0.1-0.2,0.1-0.3c0-0.1,0-0.2-0.1-0.3
	c-0.2-0.2-0.4-0.2-0.6,0c-0.2,0.1-0.2,0.4,0,0.6c0,0,0,0,0,0c0.1,0.1,0.2,0.1,0.3,0.1C699.9,204.1,700,204.1,700,204z"/>
<path class="st5" d="M727,225.5h-1v4h-0.4v-4h-1v-0.3h2.4V225.5z M728.1,226.8H728c-0.1,0-0.3,0-0.4,0.1c-0.2,0.1-0.3,0.4-0.3,0.6
	v1.9h-0.4v-2.5c0-0.1,0-0.2,0-0.4h0.3c0,0.1,0,0.3,0,0.4c0.2-0.3,0.5-0.5,0.8-0.5L728.1,226.8z M730.5,229.5h-0.4v-0.4
	c-0.1,0.3-0.4,0.4-0.7,0.4c-0.5,0-0.8-0.3-0.8-0.9v-2.1h0.4v2.1c0,0.4,0.2,0.6,0.6,0.6c0.2,0,0.3-0.1,0.4-0.2
	c0.1-0.1,0.2-0.3,0.2-0.5v-2h0.4L730.5,229.5z M732.4,227.3c0-0.4-0.2-0.6-0.5-0.6c-0.2,0-0.4,0.1-0.5,0.4c0,0,0,0,0,0.1
	c0,0.1,0,0.2,0.1,0.3c0.1,0.1,0.3,0.2,0.5,0.3c0.3,0.1,0.5,0.3,0.7,0.5c0.1,0.1,0.2,0.3,0.2,0.5c0,0.2-0.1,0.4-0.2,0.6
	c-0.2,0.1-0.4,0.2-0.6,0.2c-0.6,0-0.9-0.3-0.9-0.9l0,0h0.4c0,0.5,0.2,0.6,0.5,0.6c0.3,0,0.5-0.2,0.5-0.5c0-0.1,0-0.2-0.1-0.3
	c-0.1-0.1-0.3-0.3-0.5-0.3c-0.2-0.1-0.4-0.3-0.6-0.4c-0.1-0.1-0.2-0.3-0.2-0.5c0-0.2,0.1-0.4,0.2-0.5c0.2-0.1,0.4-0.2,0.6-0.2
	c0.1,0,0.3,0,0.4,0.1c0.2,0.1,0.4,0.3,0.4,0.8L732.4,227.3z M734.4,229.5h-0.3c-0.4,0-0.6-0.1-0.6-0.4v-2.3h-0.4v-0.3h0.4V226
	l0.4-0.1v0.6h0.5v0.3h-0.5v2.1c0,0.2,0.1,0.3,0.3,0.3h0.2V229.5z M736.8,228.1h-1.7c0,0.8,0.2,1.1,0.7,1.1c0.4,0,0.6-0.3,0.6-0.6
	c0,0,0,0,0-0.1h0.3c0.1,0.5-0.3,0.9-0.8,1c-0.1,0-0.1,0-0.2,0c-0.3,0-0.6-0.1-0.8-0.4c-0.2-0.4-0.3-0.8-0.2-1.2c0-1,0.3-1.5,1-1.5
	s1,0.4,1,1.3L736.8,228.1z M736.5,227.8c0-0.8-0.2-1.1-0.7-1.1c-0.2,0-0.4,0.1-0.5,0.3c-0.1,0.3-0.2,0.5-0.2,0.8H736.5z M739,229.5
	c0-0.1,0-0.3,0-0.4c-0.1,0.3-0.4,0.4-0.7,0.4c-0.6,0-0.9-0.5-0.9-1.5s0.3-1.6,1-1.6c0.3,0,0.6,0.1,0.7,0.4v-1.6h0.4v3.8
	c0,0.2,0,0.3,0,0.5L739,229.5z M739,228c0-0.3,0-0.6-0.1-0.9c-0.1-0.2-0.3-0.4-0.5-0.3c-0.2,0-0.4,0.1-0.5,0.3
	c-0.1,0.3-0.2,0.7-0.2,1c0,0.8,0.2,1.2,0.6,1.2S739,228.8,739,228L739,228z M744.4,229.5H744l-0.3-1.1h-1.7l-0.3,1.1h-0.4l1.3-4.3
	h0.5L744.4,229.5z M743.5,228l-0.8-2.5L742,228L743.5,228z M746.7,229.5h-0.4v-2.1c0-0.4-0.2-0.6-0.6-0.6c-0.2,0-0.3,0.1-0.4,0.2
	c-0.1,0.1-0.2,0.3-0.2,0.5v2h-0.4v-3h0.4v0.4c0.2-0.3,0.4-0.4,0.7-0.4c0.4,0,0.8,0.3,0.8,0.7c0,0.1,0,0.1,0,0.2V229.5z M748.6,227.3
	c0-0.4-0.2-0.6-0.5-0.6c-0.2,0-0.4,0.1-0.5,0.4c0,0,0,0,0,0.1c0,0.1,0,0.2,0.1,0.3c0.1,0.1,0.3,0.2,0.5,0.3c0.3,0.1,0.5,0.3,0.7,0.5
	c0.1,0.1,0.2,0.3,0.2,0.5c0,0.2-0.1,0.4-0.2,0.6c-0.2,0.1-0.4,0.2-0.6,0.2c-0.6,0-0.9-0.3-0.9-0.9l0,0h0.4c0,0.5,0.2,0.6,0.5,0.6
	c0.3,0,0.5-0.2,0.5-0.4c0-0.1,0-0.2-0.1-0.3c-0.1-0.1-0.3-0.3-0.5-0.3c-0.2-0.1-0.4-0.3-0.6-0.4c-0.1-0.1-0.2-0.3-0.2-0.5
	c0-0.2,0.1-0.4,0.2-0.5c0.2-0.1,0.4-0.2,0.6-0.2c0.1,0,0.3,0,0.4,0.1c0.2,0.1,0.4,0.3,0.4,0.8L748.6,227.3z M753.1,226.5l-0.8,3
	h-0.5c-0.4-1.5-0.6-2.4-0.6-2.6c-0.1,0.4-0.3,1.2-0.7,2.6H750l-0.8-3h0.4l0.7,2.6l0.7-2.6h0.5l0.7,2.6l0.7-2.6H753.1z M755.3,228.1
	h-1.7c0,0.8,0.2,1.1,0.7,1.1c0.3,0,0.6-0.3,0.6-0.6c0,0,0,0,0-0.1h0.3c0,0.6-0.4,1-1,1c-0.3,0-0.6-0.1-0.8-0.4
	c-0.2-0.4-0.3-0.8-0.2-1.2c0-1,0.3-1.5,1-1.5s1,0.4,1,1.3L755.3,228.1z M755,227.8c0-0.8-0.2-1.1-0.7-1.1c-0.2,0-0.4,0.1-0.5,0.3
	c-0.1,0.2-0.2,0.5-0.2,0.8H755z M757.1,226.8H757c-0.1,0-0.3,0-0.4,0.1c-0.2,0.1-0.3,0.4-0.3,0.6v1.9h-0.4v-2.5c0-0.1,0-0.3,0-0.4
	h0.3c0,0.1,0,0.3,0,0.4c0.2-0.3,0.5-0.5,0.8-0.5L757.1,226.8z M758.7,227.3c0-0.4-0.2-0.6-0.5-0.6c-0.2,0-0.4,0.1-0.5,0.4
	c0,0,0,0,0,0.1c0,0.1,0,0.2,0.1,0.3c0.1,0.1,0.3,0.2,0.5,0.3c0.3,0.1,0.5,0.3,0.7,0.5c0.1,0.1,0.2,0.3,0.2,0.5
	c0,0.2-0.1,0.4-0.2,0.6c-0.2,0.1-0.4,0.2-0.6,0.2c-0.6,0-0.9-0.3-0.9-0.9l0,0h0.4c0,0.5,0.2,0.6,0.5,0.6c0.3,0,0.5-0.2,0.5-0.4
	c0-0.1,0-0.2-0.1-0.3c-0.1-0.1-0.3-0.3-0.5-0.3c-0.2-0.1-0.4-0.2-0.6-0.4c-0.1-0.1-0.2-0.3-0.2-0.5c0-0.2,0.1-0.4,0.2-0.5
	c0.2-0.1,0.4-0.2,0.6-0.2c0.1,0,0.3,0,0.4,0.1c0.2,0.1,0.4,0.3,0.4,0.8L758.7,227.3z"/>
<path class="st22" d="M314.7,263.9h27.7c0,0-0.4,9.7,1.5,10.8s5.9,1.6,5.9,1.6H308c0,0,4.1,0,5.6-2.2S314.8,263.9,314.7,263.9"/>
<path class="st5" d="M269.6,176.7h118.1c1.7,0,3.1,1.4,3.1,3.1v71.8l0,0H266.5l0,0v-71.8C266.5,178.1,267.9,176.7,269.6,176.7z"/>
<path class="st5" d="M266.5,251.6h124.3l0,0v7.9c0,2.4-2,4.4-4.4,4.4h0H270.9c-2.4,0-4.4-2-4.4-4.4v0V251.6L266.5,251.6L266.5,251.6
	z"/>
<rect x="308" y="276.2" class="st5" width="41.8" height="2"/>
<rect x="271.7" y="181.1" class="st23" width="113.9" height="66.1"/>
<rect x="272.5" y="181.9" class="st5" width="112.5" height="64.5"/>
<path d="M281.9,196.4c0-0.3-0.1-0.7-0.4-0.9c-0.4-0.3-1-0.5-1.5-0.6c-0.6-0.1-1.1-0.4-1.6-0.7c-0.4-0.3-0.7-0.8-0.7-1.3
	c0-0.5,0.2-1,0.6-1.3c0.5-0.3,1.1-0.5,1.7-0.5c0.4,0,0.9,0.1,1.2,0.3c0.3,0.2,0.6,0.4,0.8,0.8c0.2,0.3,0.3,0.6,0.3,1h-0.6
	c0-0.4-0.2-0.9-0.5-1.1c-0.4-0.3-0.8-0.5-1.3-0.4c-0.4,0-0.9,0.1-1.3,0.4c-0.3,0.2-0.5,0.6-0.5,0.9c0,0.3,0.1,0.7,0.4,0.9
	c0.4,0.3,0.9,0.5,1.4,0.6c0.5,0.1,1,0.3,1.4,0.5c0.3,0.2,0.5,0.4,0.7,0.6c0.2,0.3,0.2,0.6,0.2,0.9c0,0.5-0.2,1-0.6,1.3
	c-0.5,0.3-1.1,0.5-1.7,0.5c-0.5,0-0.9-0.1-1.4-0.3c-0.4-0.1-0.7-0.4-0.9-0.7c-0.2-0.3-0.3-0.7-0.3-1.1h0.6c0,0.5,0.2,0.9,0.5,1.2
	c0.4,0.3,0.9,0.4,1.5,0.4c0.5,0,0.9-0.1,1.3-0.4C281.7,197.1,281.9,196.8,281.9,196.4z"/>
<path d="M284.3,197.6h3.4v0.5h-4v-6.9h0.6V197.6z"/>
<path d="M289.6,198.1H289v-6.9h0.6V198.1z"/>
<path d="M292.2,191.2l2.5,6.1l2.5-6.1h0.8v6.9h-0.6v-3V192l-2.6,6.1h-0.5L292,192l0,3.1v3h-0.6v-6.9H292.2z"/>
<path d="M303.8,196.4c0-0.3-0.1-0.7-0.4-0.9c-0.4-0.3-1-0.5-1.5-0.6c-0.6-0.1-1.1-0.4-1.6-0.7c-0.4-0.3-0.7-0.8-0.7-1.3
	c0-0.5,0.2-1,0.6-1.3c0.5-0.3,1.1-0.5,1.7-0.5c0.4,0,0.8,0.1,1.2,0.3c0.3,0.2,0.6,0.4,0.9,0.8c0.2,0.3,0.3,0.6,0.3,1h-0.6
	c0-0.4-0.2-0.9-0.5-1.1c-0.4-0.3-0.8-0.5-1.3-0.4c-0.4,0-0.9,0.1-1.3,0.4c-0.3,0.2-0.5,0.6-0.5,0.9c0,0.3,0.1,0.7,0.4,0.9
	c0.4,0.3,0.9,0.5,1.4,0.6c0.5,0.1,1,0.3,1.4,0.5c0.3,0.2,0.5,0.4,0.7,0.6c0.2,0.3,0.2,0.6,0.2,0.9c0,0.5-0.2,1-0.7,1.3
	c-0.5,0.4-1.1,0.5-1.7,0.5c-0.5,0-0.9-0.1-1.3-0.3c-0.4-0.1-0.7-0.4-0.9-0.7c-0.2-0.3-0.3-0.7-0.3-1.1h0.6c0,0.5,0.2,0.9,0.5,1.2
	c0.4,0.3,0.9,0.4,1.5,0.4c0.5,0,0.9-0.1,1.3-0.4C303.6,197.1,303.8,196.8,303.8,196.4z"/>
<path class="st35" d="M280.5,207.6c0-0.2-0.1-0.4-0.3-0.5c-0.2-0.1-0.4-0.2-0.6-0.2l0,0h-2.1c-0.4,0-0.8,0.3-0.9,0.7l-0.1,21.9h0.9
	l0.1-21.9h2.1l0.1,21.9h0.9L280.5,207.6z"/>
<polygon class="st36" points="379.6,197.9 375.7,200.5 375.7,200.5 361.3,200.5 361.3,195.1 375.7,195.1 375.7,195.1 "/>
<rect x="277.8" y="207.1" class="st37" width="102.6" height="33"/>
<rect x="313.2" y="195.2" class="st37" width="48.1" height="5.3"/>
<ellipse class="st36" cx="360.9" cy="197.8" rx="3.4" ry="3.5"/>
<ellipse class="st36" cx="343" cy="197.7" rx="3.4" ry="3.5"/>
<ellipse class="st36" cx="324.9" cy="197.5" rx="3.4" ry="3.5"/>
<line class="st38" x1="301.9" y1="207.1" x2="301.9" y2="240.1"/>
<line class="st38" x1="330" y1="206.8" x2="330" y2="239.9"/>
<line class="st38" x1="357.5" y1="207.2" x2="357.5" y2="240.3"/>
<line class="st38" x1="277.9" y1="213.6" x2="380.4" y2="213.6"/>
<line class="st38" x1="277.9" y1="229.3" x2="380.4" y2="229.3"/>
<rect x="277.9" y="219" class="st36" width="102.6" height="4.3"/>
<polygon class="st39" points="0,500.8 27.3,474.7 27.3,296.1 0,298.1 "/>
<polygon class="st20" points="0,303 27.3,296.7 27.3,281.2 0,283.9 "/>
<polygon class="st21" points="0,283.9 27.3,281.2 27.3,274.2 0,274.2 "/>
<polygon class="st40" points="0.1,318.7 0.1,319.5 21.8,312.5 21.8,471 0.1,488.9 0.1,489.9 22.5,471.5 22.6,471.4 22.6,311.4 "/>
<line class="st41" x1="27.7" y1="281.2" x2="27.7" y2="474.7"/>
<path class="st42" d="M874.4,164.8h-33.3l-10.2,4.2c-0.3,0.1-0.1,0.3,0.2,0.3h53.2c0.3,0,0.5-0.2,0.2-0.3L874.4,164.8z"/>
<path class="st43" d="M832.6,168H883c1.4,0,2.5,1.1,2.5,2.5v104.7c0,1.4-1.1,2.5-2.5,2.5h-50.4c-1.4,0-2.5-1.1-2.5-2.5V170.5
	C830.1,169.1,831.2,168,832.6,168z"/>
<path class="st44" d="M847.2,258.1h21.1c5.3,0,9.6,4.3,9.6,9.6v9.9l0,0h-40.4l0,0v-9.9C837.6,262.4,841.9,258.1,847.2,258.1z"/>
<rect x="837.6" y="168" class="st45" width="40.4" height="66.9"/>
<circle class="st46" cx="857.8" cy="244.2" r="4.4"/>
<circle class="st44" cx="857.8" cy="252.7" r="2"/>
<rect x="837.6" y="237.6" class="st47" width="8.5" height="2.2"/>
<rect x="869.4" y="237.6" class="st48" width="8.5" height="2.2"/>
<rect x="841.3" y="171.8" class="st44" width="32.8" height="9.7"/>
<rect x="841.3" y="184.3" class="st44" width="32.8" height="9.7"/>
<rect x="841.3" y="196.7" class="st44" width="32.8" height="9.7"/>
<rect x="841.3" y="209.1" class="st44" width="32.8" height="9.7"/>
<rect x="841.3" y="221.6" class="st44" width="32.8" height="9.7"/>
<polygon class="st49" points="820.2,474.7 796.5,434.7 796.5,341.3 820.4,341.3 "/>
<path class="st46" d="M932.3,242.6h80.4c4.7,0,8.6,3.8,8.6,8.6v26.6l0,0h-97.5l0,0v-26.6C923.8,246.4,927.6,242.6,932.3,242.6z"/>
<path class="st44" d="M929.7,242.6h85.7c3.3,0,5.9,2.6,5.9,5.9v0l0,0l0,0h-97.5l0,0l0,0C923.8,245.2,926.4,242.6,929.7,242.6z"/>
<path class="st50" d="M933.5,240.8h6.3l0,0v37l0,0h-14.2l0,0v-29.1C925.7,244.4,929.2,240.8,933.5,240.8z"/>
<path class="st50" d="M1019.4,277.8h-14.2l0,0v-37l0,0h6.3c4.3,0,7.9,3.5,7.9,7.9L1019.4,277.8L1019.4,277.8L1019.4,277.8z"/>
<rect x="939.9" y="240.8" class="st46" width="65.3" height="1.8"/>
<rect x="928.6" y="270.2" class="st51" width="8.4" height="2.7"/>
<rect x="929.5" y="271.2" class="st52" width="6.3" height="0.6"/>
<rect x="925.7" y="274.7" class="st53" width="14.2" height="3.1"/>
<rect x="1005.2" y="274.7" class="st53" width="14.2" height="3.1"/>
<ellipse class="st54" cx="1012.7" cy="255.3" rx="2.3" ry="2.2"/>
<rect x="1010.4" y="260" class="st54" width="4.6" height="1.2"/>
<rect x="1010.4" y="262.8" class="st54" width="4.6" height="1.1"/>
<rect x="946.6" y="263.4" class="st55" width="51.9" height="4.6"/>
<rect x="946.6" y="268" class="st56" width="51.9" height="9.8"/>
<polygon class="st44" points="996.6,270.4 948.5,270.4 941,281.7 1004.1,281.7 "/>
<path class="st57" d="M954.3,263.9h36.1c2.1,2.2,3.6,4.9,4.3,7.8c1.1,4.6,4.8,8.9,4.8,8.9h-53.8c0,0,4-4.6,4.3-8
	C950.6,268,954.3,263.9,954.3,263.9z"/>
<rect x="941" y="281.7" class="st46" width="63.1" height="1.1"/>
<path class="st58" d="M952.3,266.9l40.3,0.2c-0.6-1.1-1.4-2.2-2.2-3.2h-36.1C953.6,264.8,952.9,265.8,952.3,266.9z"/>
<path class="st46" d="M956.6,221.3h31.8c3.8,0,6.9,3.1,6.9,6.9v12.6l0,0h-45.7l0,0v-12.6C949.7,224.4,952.8,221.3,956.6,221.3z"/>
<rect x="955" y="213.4" class="st5" width="34.9" height="27.4"/>
<rect x="950.5" y="277.4" class="st59" width="42.6" height="0.5"/>
<rect x="953.6" y="268" class="st59" width="37.4" height="0.5"/>
<rect x="953" y="274.9" class="st59" width="36.1" height="0.5"/>
<rect x="952.9" y="272.5" class="st59" width="40.3" height="0.5"/>
<rect x="952.7" y="270.1" class="st59" width="36.1" height="0.5"/>
<rect x="419.7" y="313.6" class="st60" width="212.7" height="29.5"/>
<rect x="419.7" y="348.6" class="st60" width="212.7" height="108.9"/>
<circle class="st61" cx="446.4" cy="374.9" r="5.5"/>
<rect x="843.4" y="313.6" class="st60" width="212.7" height="29.5"/>
<rect x="843.4" y="348.6" class="st60" width="212.7" height="108.9"/>
<circle class="st61" cx="870" cy="374.9" r="5.5"/>
<path class="st62" d="M726.3,451.7c0-7.9,0-76.6,0-86.6h9.9c0,8-0.1,79.5-0.1,86.7c10.6,1.5,2.5,3.2-5,3.2
	C723.7,455.1,716.8,453.6,726.3,451.7z"/>
<rect x="688.4" y="451.7" class="st62" width="37.8" height="6.7"/>
<polygon class="st63" points="688.4,451.7 693.2,450 726.3,450 726.3,451.7 "/>
<path class="st44" d="M693,458.4h-1.8c0,0-1.9,0.8-1.9,4.8s1.9,4.8,1.9,4.8h1.9V458.4z"/>
<path class="st64" d="M694.1,458.4h-2.9c-1,1.4-1.5,3.1-1.4,4.8c-0.1,1.7,0.4,3.4,1.3,4.8h2.9V458.4z"/>
<ellipse class="st44" cx="693.9" cy="463.2" rx="1.5" ry="4.8"/>
<ellipse class="st64" cx="693.9" cy="463.2" rx="0.9" ry="3.2"/>
<rect x="736.1" y="451.7" class="st62" width="37.8" height="6.7"/>
<polyline class="st63" points="773.9,451.7 769.1,450 736.1,450 736.1,451.7 "/>
<path class="st44" d="M769.3,458.4h1.8c0,0,1.9,0.8,1.9,4.8s-1.9,4.8-1.9,4.8h-1.9L769.3,458.4z"/>
<path class="st64" d="M768.3,458.4h2.9c1,1.4,1.5,3.1,1.4,4.8c0.1,1.7-0.4,3.4-1.3,4.8h-2.9V458.4z"/>
<ellipse class="st44" cx="768.4" cy="463.2" rx="1.5" ry="4.8"/>
<ellipse class="st64" cx="768.4" cy="463.2" rx="0.9" ry="3.2"/>
<polygon class="st63" points="725.8,451.2 712.9,464.5 719.3,464.5 731.1,451.7 "/>
<polygon class="st65" points="719.4,472.2 731.1,456.3 731.1,451.7 719.4,464.5 "/>
<polygon class="st63" points="736.3,451.2 749.2,464.5 742.8,464.5 731,451.7 "/>
<polygon class="st65" points="742.7,472.2 731,456.3 731,451.7 742.7,464.5 "/>
<path class="st66" d="M770.7,357.4h-80.4c-1.9,2.9-2.9,6.4-2.9,9.9c-0.1,3.7,1,7.3,3.2,10.3l0,0c3.7,5,20.2,8.7,39.9,8.7
	c19.1,0,35.2-3.5,39.5-8.3l0,0c2.6-3,4.1-6.8,4.2-10.8C774.2,363.6,773,360.1,770.7,357.4z"/>
<ellipse class="st67" cx="730.5" cy="358.7" rx="40.7" ry="8.9"/>
<path class="st62" d="M325.8,451.7c0-7.9,0-76.6,0-86.6h9.9c0,8-0.1,79.5-0.1,86.7c10.6,1.5,2.5,3.2-5,3.2
	C323.2,455.1,316.3,453.6,325.8,451.7z"/>
<rect x="288" y="451.7" class="st62" width="37.8" height="6.7"/>
<polygon class="st63" points="288,451.7 292.8,450 325.8,450 325.8,451.7 "/>
<path class="st44" d="M292.6,458.4h-1.8c0,0-2,0.8-2,4.8s1.9,4.8,1.9,4.8h1.9V458.4z"/>
<path class="st64" d="M293.6,458.4h-2.9c-1,1.4-1.5,3.1-1.4,4.8c-0.1,1.7,0.4,3.4,1.3,4.8h2.9L293.6,458.4z"/>
<ellipse class="st44" cx="293.5" cy="463.2" rx="1.5" ry="4.8"/>
<ellipse class="st64" cx="293.5" cy="463.2" rx="0.9" ry="3.2"/>
<rect x="335.6" y="451.7" class="st62" width="37.8" height="6.7"/>
<polyline class="st63" points="373.5,451.7 368.7,450 335.6,450 335.6,451.7 "/>
<path class="st44" d="M368.9,458.4h1.8c0,0,2,0.8,2,4.8s-1.9,4.8-1.9,4.8h-1.9L368.9,458.4z"/>
<path class="st64" d="M367.8,458.4h2.9c1,1.4,1.5,3.1,1.4,4.8c0.1,1.7-0.4,3.4-1.3,4.8h-2.9L367.8,458.4z"/>
<ellipse class="st44" cx="368" cy="463.2" rx="1.5" ry="4.8"/>
<ellipse class="st64" cx="368" cy="463.2" rx="0.9" ry="3.2"/>
<polygon class="st63" points="325.4,451.2 312.5,464.5 318.9,464.5 330.6,451.7 "/>
<polygon class="st65" points="318.9,472.2 330.6,456.3 330.6,451.7 318.9,464.5 "/>
<polygon class="st63" points="335.8,451.2 348.8,464.5 342.3,464.5 330.6,451.7 "/>
<polygon class="st65" points="342.3,472.2 330.6,456.3 330.6,451.7 342.3,464.5 "/>
<path class="st66" d="M370.2,357.4h-80.4c-1.9,2.9-2.9,6.4-2.9,9.9c-0.1,3.7,1,7.3,3.1,10.3l0,0c3.7,5,20.2,8.7,39.9,8.7
	c19.1,0,35.2-3.5,39.5-8.3l0,0c2.6-3,4.1-6.8,4.2-10.8C373.8,363.6,372.5,360.1,370.2,357.4z"/>
<ellipse class="st67" cx="330.1" cy="358.7" rx="40.7" ry="8.9"/>
<polygon class="st68" points="91.6,275 194.2,275 201.4,279 81.3,279 "/>
<polygon class="st69" points="91.6,275 194.2,275 194.3,278.5 91.6,278.5 "/>
<rect x="140.8" y="274.1" class="st69" width="4.1" height="0.4"/>
<rect x="141.2" y="273" class="st70" width="3.4" height="1"/>
<rect x="141.2" y="272.9" class="st69" width="3.4" height="0.1"/>
<path class="st70" d="M142.9,248.7L142.9,248.7c0.9,0,1.7,0.8,1.7,1.7v0v22.5l0,0h-3.4l0,0v-22.5
	C141.2,249.5,141.9,248.7,142.9,248.7z"/>
<path class="st71" d="M144.6,250.1c-0.1-0.9-1-1.6-1.9-1.5c-0.8,0.1-1.4,0.7-1.5,1.5l-0.8,5.7h5.2L144.6,250.1z"/>
<path class="st72" d="M140.4,255.8l0.2-1.6c0.7-0.3,1.5-0.5,2.2-0.4c0.8,0,1.6,0.1,2.4,0.3l0.3,1.7L140.4,255.8z"/>
<ellipse class="st70" cx="143" cy="255.8" rx="2.6" ry="0.5"/>
<ellipse class="st69" cx="143" cy="255.8" rx="2.2" ry="0.4"/>
<ellipse class="st73" cx="144.4" cy="255.8" rx="0.4" ry="0.1"/>
<ellipse class="st73" cx="141.6" cy="255.8" rx="0.4" ry="0.1"/>
<ellipse class="st73" cx="143.1" cy="255.8" rx="0.4" ry="0.1"/>
<ellipse class="st73" cx="143" cy="255.5" rx="0.4" ry="0.1"/>
<ellipse class="st73" cx="143" cy="256" rx="0.4" ry="0.1"/>
<ellipse class="st73" cx="144" cy="256" rx="0.4" ry="0.1"/>
<ellipse class="st73" cx="142" cy="255.6" rx="0.4" ry="0.1"/>
<ellipse class="st73" cx="144" cy="255.6" rx="0.4" ry="0.1"/>
<ellipse class="st73" cx="142" cy="256" rx="0.4" ry="0.1"/>
<rect x="144.6" y="267.6" class="st74" width="0.8" height="2.3"/>
<rect x="145.4" y="266.4" class="st74" width="3.1" height="4.8"/>
<path class="st75" d="M147,262.8L147,262.8c0.1,0,0.2,0.1,0.2,0.2v3.6c0,0.1-0.1,0.2-0.2,0.2l0,0c-0.1,0-0.2-0.1-0.2-0.2V263
	C146.8,262.9,146.9,262.8,147,262.8z"/>
<polygon class="st49" points="235.8,474.7 261.9,440.1 261.7,341.3 235.6,341.3 "/>
<rect x="48.9" y="314.7" class="st76" width="167.4" height="66.8"/>
<rect x="48.9" y="390.7" class="st76" width="167.4" height="66.8"/>
<circle class="st77" cx="132.6" cy="336.8" r="5.4"/>
<circle class="st77" cx="132.6" cy="418.8" r="5.4"/>
<g>
	<rect x="475.8" y="273" class="st78" width="3.3" height="3.3"/>
	<rect x="472" y="276.3" class="st78" width="11" height="2.7"/>
	<ellipse class="st79" cx="477.5" cy="272.7" rx="3.5" ry="1.2"/>
	<rect x="590.2" y="273" class="st78" width="3.3" height="3.3"/>
	<rect x="586.3" y="276.3" class="st78" width="11" height="2.7"/>
	<ellipse class="st79" cx="591.8" cy="272.7" rx="3.5" ry="1.2"/>
	<path class="st80" d="M607.3,128v138.1c0,3.8-3.1,6.9-6.9,6.9h-90.9V128c0-3.8,3.1-6.9,6.9-6.9h84
		C604.3,121.1,607.3,124.2,607.3,128z"/>
	<path class="st81" d="M607.3,262.2v3.8c0,3.8-3.2,6.9-7.1,6.9h-93.8v-10.7H607.3z"/>
	<path class="st82" d="M509.5,273h-38c-5.3,0-9.7-4.3-9.7-9.7V144.6c0-5.3,4.3-9.7,9.7-9.7h38V273z"/>
	<path class="st20" d="M607.3,183.9v82.2h-25.2l-0.3-1.9h-48.7l-0.3,1.9h-56c-4.7,0-8.6-3.8-8.6-8.6v-65c0-4.7,3.8-8.6,8.6-8.6
		H607.3z"/>
	<rect x="468.2" y="194.8" class="st82" width="139.2" height="0.9"/>
	<rect x="557.6" y="195.7" class="st82" width="0.9" height="68.5"/>
	<circle class="st83" cx="476.9" cy="191.4" r="2.2"/>
	<g>
		<circle class="st79" cx="499.1" cy="269.2" r="1.6"/>
		<circle class="st78" cx="499.1" cy="269.2" r="1.2"/>
	</g>
	<g>
		<circle class="st79" cx="567.4" cy="269.2" r="1.6"/>
		<circle class="st78" cx="567.4" cy="269.2" r="1.2"/>
	</g>
	<rect x="509.5" y="182.5" class="st79" width="97.8" height="1.4"/>
	<polygon class="st35" points="526.1,127.5 526.1,176.3 525.1,177 525.1,126.2 	"/>
	<g>
		<polygon class="st84" points="525.1,126.4 526.1,127.7 591.9,127.7 593,126.4 		"/>
		<polygon class="st20" points="593,177.2 525.1,177.2 525.9,176.5 592.2,176.5 		"/>
		<polygon class="st82" points="526.1,127.7 526.1,176.5 525.1,177.2 525.1,126.4 		"/>
		<polygon class="st82" points="592,127.7 592,176.5 593,177.2 593,126.4 		"/>
	</g>
	<rect x="526.1" y="127.4" class="st5" width="65.8" height="49.2"/>
	<g>
		<g>
			<image style="overflow:visible;" width="77" height="77" xlink:href="7AFC1B7F.png"  transform="matrix(1 0 0 1 438 153)">
			</image>
		</g>
		<radialGradient id="SVGID_3_" cx="476.9061" cy="191.3697" r="1.5915" gradientUnits="userSpaceOnUse">
			<stop  offset="0" style="stop-color:#F94B4B"/>
			<stop  offset="1" style="stop-color:#CD2A2C"/>
		</radialGradient>
		<circle class="st85" cx="476.9" cy="191.4" r="1.6"/>
	</g>
</g>
</svg>
